<svg id="phone" xmlns="http://www.w3.org/2000/svg" viewBox="0 0 64 64">
  <title>icons</title>
  <path d="M55.33,39.24a5.27,5.27,0,0,0-4.1-4.31c-8.28-1.94-10.36-6.71-10.71-12A48.32,48.32,0,0,0,32,22.36a48.32,48.32,0,0,0-8.52.57c-0.35,5.29-2.43,10.06-10.71,12a5.27,5.27,0,0,0-4.1,4.31L7.08,50.31a6.38,6.38,0,0,0,6.28,7.41h37.3a6.38,6.38,0,0,0,6.28-7.41l-1.6-11.07h0ZM32,49.66a8,8,0,1,1,8.12-8A8.08,8.08,0,0,1,32,49.66ZM64,19.14C63.91,14.32,51.64,6.28,32,6.28s-31.92,8-32,12.86,0.07,11.1,8.15,10.05C17.62,28,17,24.67,17,19.95c0-3.29,7.69-4.09,15-4.09s15,0.79,15,4.09c0,4.72-.58,8,8.87,9.25C63.92,30.24,64.06,24,64,19.14Z"/>
</svg>
