<svg id="linkedin" xmlns="http://www.w3.org/2000/svg" viewBox="0 0 64 64">
  <title>LinkedIn</title>
  <g>
    <path d="M59.26,0H4.72A4.67,4.67,0,0,0,0,4.61V59.38A4.67,4.67,0,0,0,4.72,64H59.26A4.68,4.68,0,0,0,64,59.38V4.61A4.68,4.68,0,0,0,59.26,0Z" style="fill: #007bb5"/>
    <g>
      <path d="M9.85,24.32h9.49V54.86H9.85V24.32ZM14.6,9.14a5.5,5.5,0,1,1-5.5,5.5,5.51,5.51,0,0,1,5.5-5.5" style="fill: #fff"/>
      <path d="M25.3,24.32h9.1v4.17h0.13a10,10,0,0,1,9-4.93c9.61,0,11.39,6.33,11.39,14.55V54.86H45.42V40c0-3.54-.07-8.1-4.93-8.1s-5.7,3.86-5.7,7.84V54.86H25.3V24.32Z" style="fill: #fff"/>
    </g>
  </g>
</svg>
