<svg id="twitter" xmlns="http://www.w3.org/2000/svg" viewBox="0 0 64 64">
  <title>icons</title>
  <path d="M64,12.15a25.88,25.88,0,0,1-7.54,2.06A13.2,13.2,0,0,0,62.24,7a26.42,26.42,0,0,1-8.34,3.19,13.14,13.14,0,0,0-22.37,12A37.26,37.26,0,0,1,4.47,8.39,13.15,13.15,0,0,0,8.53,25.92a13.13,13.13,0,0,1-5.95-1.64v0.16A13.13,13.13,0,0,0,13.12,37.31a13.15,13.15,0,0,1-3.46.46,13.49,13.49,0,0,1-2.47-.24,13.17,13.17,0,0,0,12.26,9.12A26.34,26.34,0,0,1,3.14,52.29,25.91,25.91,0,0,1,0,52.1,37.13,37.13,0,0,0,20.13,58c24.15,0,37.35-20,37.35-37.35,0-.57,0-1.14,0-1.7A26.43,26.43,0,0,0,64,12.15h0Z"/>
</svg>
