<svg id="email" xmlns="http://www.w3.org/2000/svg" viewBox="0 0 64 64">
  <title>Email</title>
  <path d="M59.43,51.43V24A20.87,20.87,0,0,1,57,26.36q-9.57,7.36-15.21,12.07-1.82,1.54-3,2.39a16.54,16.54,0,0,1-3.09,1.73,9,9,0,0,1-3.66.88H32a9,9,0,0,1-3.66-.88,16.62,16.62,0,0,1-3.09-1.73q-1.14-.86-3-2.39Q16.61,33.71,7,26.36A20.88,20.88,0,0,1,4.57,24V51.43a1.16,1.16,0,0,0,1.14,1.14H58.29a1.16,1.16,0,0,0,1.14-1.14h0Zm0-37.54V13l0-.46q0-.46-0.11-0.45a0.37,0.37,0,0,1-.2-0.32q-0.11-.34-0.32-0.27a0.61,0.61,0,0,1-.5-0.09H5.71a1.16,1.16,0,0,0-1.14,1.14q0,6,5.25,10.14Q16.71,28.14,24.14,34l1.25,1.05q1,0.88,1.64,1.34t1.59,1.13a9.48,9.48,0,0,0,1.8,1,4.27,4.27,0,0,0,1.54.32H32a4.23,4.23,0,0,0,1.54-.32,9.55,9.55,0,0,0,1.8-1q1-.66,1.59-1.13t1.64-1.34L39.86,34q7.43-5.89,14.32-11.32a16.82,16.82,0,0,0,3.59-4.13,8.9,8.9,0,0,0,1.66-4.7h0ZM64,12.57V51.43a5.73,5.73,0,0,1-5.71,5.71H5.71a5.5,5.5,0,0,1-4-1.68,5.5,5.5,0,0,1-1.68-4V12.57a5.5,5.5,0,0,1,1.68-4,5.5,5.5,0,0,1,4-1.68H58.29a5.5,5.5,0,0,1,4,1.68A5.5,5.5,0,0,1,64,12.57Z"/>
</svg>
